<svg id="Слой_1" data-name="Слой 1" xmlns="http://www.w3.org/2000/svg" viewBox="0 0 511 511">
    <defs><style>.cls-1{fill:#fdc745;}.cls-2{fill:#DADADA;}</style></defs>
    <path class="cls-1" d="M253.83,10.92A27.4,27.4,0,0,0,244.89,13c-8.95,3.82-13.16,11.8-14.41,14.41L172.21,164,24.69,177.34A27.2,27.2,0,0,0,9.28,224.87l111.48,97.77L87.89,467.45a27.11,27.11,0,0,0,40.39,29.34l127.22-76"/><path class="cls-2" d="M255.5,420.79l127.18,76a27.15,27.15,0,0,0,40.41-29.34L390.22,322.64,501.7,224.89a27.2,27.2,0,0,0-15.41-47.57L338.8,164,280.48,27.44a27.08,27.08,0,0,0-14.81-14.58,28,28,0,0,0-11.84-1.94"/></svg>